<mxfile host="app.diagrams.net" modified="2024-03-14T10:39:15.141Z" agent="Mozilla/5.0 (Windows NT 10.0; Win64; x64) AppleWebKit/537.36 (KHTML, like Gecko) Chrome/122.0.0.0 Safari/537.36 Edg/122.0.0.0" etag="mFu_04tP8RGKtVDli_08" version="24.0.2" type="device">
  <diagram name="PÃ¡gina-1" id="uA08i3nrFFVmuYdi1h4l">
    <mxGraphModel dx="1386" dy="785" grid="1" gridSize="10" guides="1" tooltips="1" connect="1" arrows="1" fold="1" page="1" pageScale="1" pageWidth="827" pageHeight="1169" background="#FFFFFF" math="0" shadow="0">
      <root>
        <mxCell id="0" />
        <mxCell id="1" parent="0" />
        <mxCell id="OqXVJTrMrxMel2EwQY6u-1" value="Program Execution" style="rounded=0;whiteSpace=wrap;html=1;" vertex="1" parent="1">
          <mxGeometry x="120" y="290" width="120" height="60" as="geometry" />
        </mxCell>
        <mxCell id="OqXVJTrMrxMel2EwQY6u-2" value="Program Execution" style="rounded=0;whiteSpace=wrap;html=1;" vertex="1" parent="1">
          <mxGeometry x="340" y="290" width="120" height="60" as="geometry" />
        </mxCell>
        <mxCell id="OqXVJTrMrxMel2EwQY6u-3" value="Program Execution" style="rounded=0;whiteSpace=wrap;html=1;" vertex="1" parent="1">
          <mxGeometry x="540" y="290" width="120" height="60" as="geometry" />
        </mxCell>
        <mxCell id="OqXVJTrMrxMel2EwQY6u-4" value="" style="endArrow=classic;html=1;rounded=0;" edge="1" parent="1">
          <mxGeometry width="50" height="50" relative="1" as="geometry">
            <mxPoint x="110" y="380" as="sourcePoint" />
            <mxPoint x="680" y="380" as="targetPoint" />
          </mxGeometry>
        </mxCell>
        <mxCell id="OqXVJTrMrxMel2EwQY6u-5" value="Time" style="text;html=1;align=center;verticalAlign=middle;whiteSpace=wrap;rounded=0;" vertex="1" parent="1">
          <mxGeometry x="370" y="390" width="60" height="30" as="geometry" />
        </mxCell>
        <mxCell id="OqXVJTrMrxMel2EwQY6u-6" value="Wait for I/O device" style="text;html=1;align=center;verticalAlign=middle;whiteSpace=wrap;rounded=0;" vertex="1" parent="1">
          <mxGeometry x="260" y="305" width="60" height="30" as="geometry" />
        </mxCell>
        <mxCell id="OqXVJTrMrxMel2EwQY6u-7" value="Wait for I/O device" style="text;html=1;align=center;verticalAlign=middle;whiteSpace=wrap;rounded=0;" vertex="1" parent="1">
          <mxGeometry x="470" y="305" width="60" height="30" as="geometry" />
        </mxCell>
      </root>
    </mxGraphModel>
  </diagram>
</mxfile>
